<svg aria-hidden="true" style="position: absolute; width: 0; height: 0; overflow: hidden;" version="1.1" xmlns="http://www.w3.org/2000/svg" xmlns:xlink="http://www.w3.org/1999/xlink">
<defs>
<symbol id="icon-haze-fill-1" viewBox="0 0 32 32">
<path d="M8.111 17.334c-0.193-1.147-0.133-2.322 0.175-3.443s0.856-2.162 1.607-3.050c0.751-0.888 1.686-1.601 2.741-2.090s2.204-0.743 3.366-0.743c1.163 0 2.312 0.253 3.366 0.743s1.99 1.203 2.741 2.090 1.299 1.929 1.607 3.050c0.308 1.121 0.367 2.296 0.175 3.443h-15.779zM2.667 20h13.333v2.667h-13.333v-2.667zM18.667 20h10.667v2.667h-10.667v-2.667zM21.333 25.333h5.333v2.667h-5.333v-2.667zM5.333 25.333h13.333v2.667h-13.333v-2.667zM14.667 1.333h2.667v4h-2.667v-4zM4.687 6.572l1.885-1.885 2.828 2.828-1.885 1.885-2.828-2.828zM25.427 4.687l1.885 1.885-2.828 2.828-1.885-1.885 2.828-2.828zM30.667 14.667v2.667h-4v-2.667h4zM5.333 14.667v2.667h-4v-2.667h4z"></path>
</symbol>

<symbol id="icon-clock" viewBox="0 0 32 32">
<path d="M16 29.333c-7.364 0-13.333-5.969-13.333-13.333s5.969-13.333 13.333-13.333 13.333 5.969 13.333 13.333c0 7.364-5.969 13.333-13.333 13.333zM16 26.667c2.829 0 5.542-1.124 7.542-3.124s3.124-4.714 3.124-7.543-1.124-5.542-3.124-7.542c-2-2-4.713-3.124-7.542-3.124s-5.542 1.124-7.542 3.124c-2 2-3.124 4.713-3.124 7.542s1.124 5.542 3.124 7.543c2 2 4.713 3.124 7.542 3.124zM17.333 16h5.333v2.667h-8v-9.333h2.667v6.667z"></path>
</symbol>

<symbol id="icon-yt" viewBox="0 0 32 32">
<path d="M28.724 8.664c0.609 2.376 0.609 7.336 0.609 7.336s0 4.96-0.609 7.336c-0.339 1.313-1.329 2.347-2.584 2.696-2.279 0.635-10.14 0.635-10.14 0.635s-7.857 0-10.14-0.635c-1.26-0.355-2.249-1.387-2.584-2.696-0.609-2.376-0.609-7.336-0.609-7.336s0-4.96 0.609-7.336c0.339-1.313 1.329-2.347 2.584-2.696 2.283-0.635 10.14-0.635 10.14-0.635s7.861 0 10.14 0.635c1.26 0.355 2.249 1.387 2.584 2.696zM13.333 20.667l8-4.667-8-4.667v9.333z"></path>
</symbol>

<symbol id="icon-inst" viewBox="0 0 32 32">
<path d="M16 2.667c3.623 0 4.075 0.013 5.496 0.080 1.42 0.067 2.387 0.289 3.237 0.62 0.88 0.339 1.621 0.797 2.363 1.537 0.678 0.667 1.203 1.473 1.537 2.363 0.329 0.849 0.553 1.817 0.62 3.237 0.063 1.421 0.080 1.873 0.080 5.496s-0.013 4.075-0.080 5.496c-0.067 1.42-0.291 2.387-0.62 3.237-0.334 0.89-0.858 1.697-1.537 2.363-0.667 0.678-1.473 1.202-2.363 1.537-0.849 0.329-1.817 0.553-3.237 0.62-1.421 0.063-1.873 0.080-5.496 0.080s-4.075-0.013-5.496-0.080c-1.42-0.067-2.387-0.291-3.237-0.62-0.89-0.334-1.697-0.859-2.363-1.537-0.678-0.666-1.203-1.473-1.537-2.363-0.331-0.849-0.553-1.817-0.62-3.237-0.063-1.421-0.080-1.873-0.080-5.496s0.013-4.075 0.080-5.496c0.067-1.421 0.289-2.387 0.62-3.237 0.334-0.89 0.858-1.697 1.537-2.363 0.666-0.678 1.473-1.203 2.363-1.537 0.851-0.331 1.816-0.553 3.237-0.62 1.421-0.063 1.873-0.080 5.496-0.080zM16 9.333c-1.768 0-3.464 0.702-4.714 1.953s-1.953 2.946-1.953 4.714c0 1.768 0.702 3.464 1.953 4.714s2.946 1.953 4.714 1.953 3.464-0.702 4.714-1.953c1.25-1.25 1.953-2.946 1.953-4.714s-0.702-3.464-1.953-4.714c-1.25-1.25-2.946-1.953-4.714-1.953zM24.667 9c0-0.442-0.176-0.866-0.488-1.179s-0.736-0.488-1.178-0.488-0.866 0.176-1.179 0.488c-0.313 0.313-0.488 0.736-0.488 1.179s0.176 0.866 0.488 1.178c0.313 0.313 0.737 0.488 1.179 0.488s0.866-0.176 1.178-0.488c0.313-0.313 0.488-0.736 0.488-1.178zM16 12c1.061 0 2.078 0.421 2.828 1.172s1.172 1.768 1.172 2.828c0 1.061-0.421 2.078-1.172 2.828s-1.768 1.172-2.828 1.172c-1.061 0-2.078-0.421-2.828-1.172s-1.172-1.768-1.172-2.828c0-1.061 0.421-2.078 1.172-2.828s1.768-1.172 2.828-1.172z"></path>
</symbol>

<symbol id="icon-facebook" viewBox="0 0 32 32">
<path d="M19 6h5v-6h-5c-3.86 0-7 3.14-7 7v3h-4v6h4v16h6v-16h5l1-6h-6v-3c0-0.542 0.458-1 1-1z"></path>
</symbol>

<symbol id="logotype" viewBox="0 0 119 32">
<path fill="#f65050" style="fill: var(--color1, #f65050)" d="M30.145 16.928c0 8.324-6.748 15.072-15.072 15.072s-15.072-6.748-15.072-15.072c0-8.324 6.748-15.072 15.072-15.072s15.072 6.748 15.072 15.072z"></path>
<path fill="#fff" style="fill: var(--color2, #fff)" d="M11.056 9.959l11.15 11.15c0.453 0.453 0.453 1.187 0 1.64l-0.984 0.984c-0.453 0.453-1.187 0.453-1.64 0l-11.15-11.15c-0.453-0.453-0.453-1.187 0-1.64l0.984-0.984c0.453-0.453 1.187-0.453 1.64 0z"></path>
<path fill="#fff" style="fill: var(--color2, #fff)" d="M20.931 9.959l0.984 0.984c0.453 0.453 0.453 1.187 0 1.64l-0.984 0.984c-0.453 0.453-1.187 0.453-1.64 0l-0.984-0.984c-0.453-0.453-0.453-1.187 0-1.64l0.984-0.984c0.453-0.453 1.187-0.453 1.64 0z"></path>
<path fill="#fff" style="fill: var(--color2, #fff)" d="M10.728 20.162l0.984 0.984c0.453 0.453 0.453 1.187 0 1.64l-0.984 0.984c-0.453 0.453-1.187 0.453-1.64 0l-0.984-0.984c-0.453-0.453-0.453-1.187 0-1.64l0.984-0.984c0.453-0.453 1.187-0.453 1.64 0z"></path>
<path fill="#393939" style="fill: var(--color3, #393939)" d="M34.727 25.043v-18.031h2.805l3.695 8.682v-8.682h3.295v18.031h-2.694l-3.695-9.35v9.35h-3.406zM51.212 25.266c-0.935 0-1.736-0.163-2.404-0.49-0.668-0.341-1.18-0.831-1.536-1.469-0.356-0.653-0.534-1.432-0.534-2.337v-4.719c0-0.92 0.178-1.699 0.534-2.337s0.868-1.12 1.536-1.447c0.683-0.341 1.484-0.512 2.404-0.512 0.95 0 1.736 0.163 2.36 0.49 0.638 0.326 1.113 0.809 1.425 1.447 0.327 0.638 0.49 1.425 0.49 2.36v2.582h-5.165v2.471c0 0.326 0.037 0.594 0.111 0.801s0.178 0.356 0.312 0.445c0.134 0.089 0.289 0.134 0.467 0.134s0.334-0.037 0.467-0.111c0.148-0.089 0.26-0.223 0.334-0.401 0.089-0.178 0.134-0.423 0.134-0.735v-1.358h3.339v1.247c0 1.306-0.378 2.293-1.135 2.961-0.757 0.653-1.803 0.979-3.139 0.979zM50.322 17.141h1.825v-1.291c0-0.341-0.045-0.608-0.134-0.801-0.074-0.193-0.185-0.326-0.334-0.401-0.134-0.074-0.297-0.111-0.49-0.111-0.178 0-0.334 0.045-0.467 0.134-0.119 0.089-0.215 0.245-0.289 0.467-0.074 0.208-0.111 0.512-0.111 0.913v1.091zM58.686 25.043l-1.892-12.867h3.027l0.935 7.302 1.002-7.302h2.627l0.868 7.48 1.091-7.48h2.805l-1.914 12.867h-3.117l-1.113-7.235-1.247 7.235h-3.072zM74.707 25.266c-1.128 0-2.070-0.252-2.827-0.757-0.742-0.505-1.35-1.328-1.825-2.471l2.471-1.091c0.237 0.579 0.512 1.039 0.824 1.38 0.326 0.326 0.683 0.49 1.069 0.49 0.282 0 0.49-0.059 0.623-0.178 0.148-0.119 0.223-0.282 0.223-0.49 0-0.341-0.134-0.653-0.401-0.935-0.252-0.282-0.712-0.698-1.38-1.247l-0.935-0.779c-0.683-0.579-1.224-1.135-1.625-1.67-0.386-0.549-0.579-1.224-0.579-2.026 0-0.697 0.178-1.313 0.534-1.848 0.371-0.534 0.861-0.95 1.469-1.247s1.261-0.445 1.959-0.445c1.054 0 1.937 0.289 2.649 0.868s1.21 1.395 1.491 2.449l-2.337 1.069c-0.089-0.282-0.215-0.564-0.378-0.846s-0.364-0.519-0.601-0.712c-0.223-0.193-0.467-0.289-0.735-0.289-0.237 0-0.43 0.067-0.579 0.2-0.134 0.134-0.2 0.312-0.2 0.534 0 0.282 0.156 0.586 0.467 0.913 0.326 0.326 0.772 0.72 1.336 1.18l0.913 0.801c0.371 0.312 0.735 0.646 1.091 1.002s0.646 0.749 0.868 1.18c0.237 0.43 0.356 0.92 0.356 1.469 0 0.742-0.186 1.38-0.557 1.914-0.371 0.519-0.861 0.913-1.469 1.18-0.594 0.267-1.232 0.401-1.914 0.401z"></path>
<path fill="#f65050" style="fill: var(--color1, #f65050)" d="M84.364 25.266c-0.935 0-1.736-0.171-2.404-0.512-0.653-0.341-1.158-0.831-1.514-1.469s-0.534-1.41-0.534-2.315v-4.719c0-0.92 0.178-1.699 0.534-2.337s0.861-1.12 1.514-1.447c0.668-0.341 1.469-0.512 2.404-0.512 0.92 0 1.699 0.141 2.337 0.423 0.653 0.282 1.15 0.712 1.491 1.291 0.341 0.564 0.512 1.284 0.512 2.159v1.358h-3.495v-1.469c0-0.341-0.037-0.601-0.111-0.779-0.059-0.193-0.156-0.326-0.289-0.401-0.119-0.074-0.267-0.111-0.445-0.111s-0.326 0.052-0.445 0.156c-0.119 0.089-0.208 0.245-0.267 0.467-0.059 0.208-0.089 0.505-0.089 0.89v5.343c0 0.579 0.067 0.972 0.2 1.18 0.148 0.208 0.356 0.312 0.623 0.312 0.193 0 0.349-0.037 0.467-0.111 0.119-0.089 0.208-0.223 0.267-0.401 0.059-0.193 0.089-0.445 0.089-0.757v-1.714h3.495v1.558c0 0.861-0.178 1.588-0.534 2.182-0.341 0.579-0.838 1.017-1.491 1.313-0.638 0.282-1.41 0.423-2.315 0.423zM93.241 25.266c-0.653 0-1.202-0.156-1.647-0.467s-0.779-0.705-1.002-1.18c-0.223-0.49-0.334-0.987-0.334-1.491 0-0.801 0.156-1.477 0.467-2.026 0.326-0.549 0.749-1.009 1.269-1.38s1.091-0.683 1.714-0.935c0.623-0.267 1.239-0.505 1.848-0.712v-1.291c0-0.223-0.022-0.416-0.067-0.579-0.045-0.178-0.119-0.312-0.223-0.401-0.104-0.104-0.26-0.156-0.467-0.156s-0.371 0.045-0.49 0.134c-0.104 0.089-0.178 0.215-0.223 0.378-0.045 0.148-0.074 0.319-0.089 0.512l-0.089 0.935-3.384-0.134c0.074-1.543 0.482-2.679 1.224-3.406 0.757-0.742 1.885-1.113 3.384-1.113 1.306 0 2.278 0.364 2.916 1.091 0.653 0.712 0.979 1.64 0.979 2.783v6.010c0 0.534 0.007 1.002 0.022 1.402 0.030 0.401 0.059 0.749 0.089 1.046 0.045 0.297 0.082 0.549 0.111 0.757h-3.25c-0.045-0.341-0.096-0.712-0.156-1.113s-0.104-0.638-0.134-0.712c-0.148 0.534-0.43 1.009-0.846 1.425-0.401 0.416-0.942 0.623-1.625 0.623zM94.532 22.817c0.148 0 0.282-0.030 0.401-0.089 0.134-0.059 0.252-0.141 0.356-0.245s0.193-0.208 0.267-0.312v-3.517c-0.297 0.178-0.571 0.364-0.824 0.557-0.252 0.178-0.467 0.378-0.646 0.601s-0.319 0.467-0.423 0.735c-0.089 0.252-0.134 0.542-0.134 0.868 0 0.43 0.089 0.772 0.267 1.024s0.423 0.378 0.735 0.378zM105.141 25.266c-1.128 0-2.070-0.252-2.827-0.757-0.742-0.505-1.35-1.328-1.825-2.471l2.471-1.091c0.237 0.579 0.512 1.039 0.824 1.38 0.326 0.326 0.683 0.49 1.069 0.49 0.282 0 0.49-0.059 0.623-0.178 0.148-0.119 0.223-0.282 0.223-0.49 0-0.341-0.134-0.653-0.401-0.935-0.252-0.282-0.712-0.698-1.38-1.247l-0.935-0.779c-0.683-0.579-1.224-1.135-1.625-1.67-0.386-0.549-0.579-1.224-0.579-2.026 0-0.697 0.178-1.313 0.534-1.848 0.371-0.534 0.861-0.95 1.469-1.247s1.261-0.445 1.959-0.445c1.054 0 1.937 0.289 2.649 0.868s1.21 1.395 1.491 2.449l-2.337 1.069c-0.089-0.282-0.215-0.564-0.378-0.846s-0.364-0.519-0.601-0.712c-0.223-0.193-0.467-0.289-0.735-0.289-0.237 0-0.43 0.067-0.579 0.2-0.134 0.134-0.2 0.312-0.2 0.534 0 0.282 0.156 0.586 0.467 0.913 0.326 0.326 0.772 0.72 1.336 1.18l0.913 0.801c0.371 0.312 0.735 0.646 1.091 1.002s0.646 0.749 0.868 1.18c0.237 0.43 0.356 0.92 0.356 1.469 0 0.742-0.186 1.38-0.557 1.914-0.371 0.519-0.861 0.913-1.469 1.18-0.594 0.267-1.232 0.401-1.914 0.401zM114.599 25.177c-0.965 0-1.714-0.141-2.248-0.423-0.519-0.282-0.876-0.69-1.069-1.224-0.193-0.549-0.289-1.209-0.289-1.981v-6.99h-1.247v-2.382h1.247v-3.918h3.673v3.918h1.825v2.382h-1.825v6.634c0 0.371 0.104 0.638 0.312 0.801 0.223 0.163 0.497 0.245 0.824 0.245 0.193 0 0.371-0.007 0.534-0.022 0.163-0.030 0.312-0.052 0.445-0.067v2.849c-0.193 0.030-0.497 0.067-0.913 0.111s-0.838 0.067-1.269 0.067z"></path>
</symbol>

<symbol id="icon-twitter" viewBox="0 0 32 32">
<path d="M32 7.075c-1.175 0.525-2.444 0.875-3.769 1.031 1.356-0.813 2.394-2.1 2.887-3.631-1.269 0.75-2.675 1.3-4.169 1.594-1.2-1.275-2.906-2.069-4.794-2.069-3.625 0-6.563 2.938-6.563 6.563 0 0.512 0.056 1.012 0.169 1.494-5.456-0.275-10.294-2.888-13.531-6.862-0.563 0.969-0.887 2.1-0.887 3.3 0 2.275 1.156 4.287 2.919 5.463-1.075-0.031-2.087-0.331-2.975-0.819 0 0.025 0 0.056 0 0.081 0 3.181 2.263 5.838 5.269 6.437-0.55 0.15-1.131 0.231-1.731 0.231-0.425 0-0.831-0.044-1.237-0.119 0.838 2.606 3.263 4.506 6.131 4.563-2.25 1.762-5.075 2.813-8.156 2.813-0.531 0-1.050-0.031-1.569-0.094 2.913 1.869 6.362 2.95 10.069 2.95 12.075 0 18.681-10.006 18.681-18.681 0-0.287-0.006-0.569-0.019-0.85 1.281-0.919 2.394-2.075 3.275-3.394z"></path>
</symbol>

<symbol id="icon-celsium" viewBox="0 0 32 32" >
    <g clip-path="url(#clip0_3_42)">
<path d="M1.49998 3.33333C1.34677 3.33333 1.19506 3.30316 1.05352 3.24453C0.911969 3.1859 0.783357 3.09996 0.675022 2.99162C0.566687 2.88329 0.480751 2.75468 0.42212 2.61313C0.36349 2.47158 0.333313 2.31988 0.333313 2.16667C0.333313 2.01346 0.36349 1.86175 0.42212 1.7202C0.480751 1.57866 0.566687 1.45004 0.675022 1.34171C0.783357 1.23337 0.911969 1.14744 1.05352 1.08881C1.19506 1.03018 1.34677 1 1.49998 1C1.8094 1 2.10615 1.12292 2.32494 1.34171C2.54373 1.5605 2.66665 1.85725 2.66665 2.16667C2.66665 2.47609 2.54373 2.77283 2.32494 2.99162C2.10615 3.21042 1.8094 3.33333 1.49998 3.33333ZM1.49998 2.66667C1.63259 2.66667 1.75976 2.61399 1.85353 2.52022C1.9473 2.42645 1.99998 2.29927 1.99998 2.16667C1.99998 2.03406 1.9473 1.90688 1.85353 1.81311C1.75976 1.71935 1.63259 1.66667 1.49998 1.66667C1.36737 1.66667 1.24019 1.71935 1.14643 1.81311C1.05266 1.90688 0.99998 2.03406 0.99998 2.16667C0.99998 2.29927 1.05266 2.42645 1.14643 2.52022C1.24019 2.61399 1.36737 2.66667 1.49998 2.66667ZM7.33331 3.33333H6.66665C6.66665 2.97971 6.52617 2.64057 6.27612 2.39052C6.02607 2.14048 5.68693 2 5.33331 2C4.97969 2 4.64055 2.14048 4.3905 2.39052C4.14046 2.64057 3.99998 2.97971 3.99998 3.33333V5C3.99998 5.35362 4.14046 5.69276 4.3905 5.94281C4.64055 6.19286 4.97969 6.33333 5.33331 6.33333C5.68693 6.33333 6.02607 6.19286 6.27612 5.94281C6.52617 5.69276 6.66665 5.35362 6.66665 5H7.33331C7.33331 5.53043 7.1226 6.03914 6.74753 6.41421C6.37245 6.78929 5.86375 7 5.33331 7C4.80288 7 4.29417 6.78929 3.9191 6.41421C3.54403 6.03914 3.33331 5.53043 3.33331 5V3.33333C3.33331 2.8029 3.54403 2.29419 3.9191 1.91912C4.29417 1.54405 4.80288 1.33333 5.33331 1.33333C5.86375 1.33333 6.37245 1.54405 6.74753 1.91912C7.1226 2.29419 7.33331 2.8029 7.33331 3.33333Z" fill="#393939"/>
</g>
<defs>
<clipPath id="clip0_3_42">
<rect width="8" height="8" fill="white"/>
</clipPath>
</symbol>

</defs>
</svg>
