<svg aria-hidden="true" style="position: absolute; width: 0; height: 0; overflow: hidden;" version="1.1" xmlns="http://www.w3.org/2000/svg" xmlns:xlink="http://www.w3.org/1999/xlink">
<defs>
<symbol id="icon-haze-fill-1" viewBox="0 0 32 32">
<path d="M8.111 17.334c-0.193-1.147-0.133-2.322 0.175-3.443s0.856-2.162 1.607-3.050c0.751-0.888 1.686-1.601 2.741-2.090s2.204-0.743 3.366-0.743c1.163 0 2.312 0.253 3.366 0.743s1.99 1.203 2.741 2.090 1.299 1.929 1.607 3.050c0.308 1.121 0.367 2.296 0.175 3.443h-15.779zM2.667 20h13.333v2.667h-13.333v-2.667zM18.667 20h10.667v2.667h-10.667v-2.667zM21.333 25.333h5.333v2.667h-5.333v-2.667zM5.333 25.333h13.333v2.667h-13.333v-2.667zM14.667 1.333h2.667v4h-2.667v-4zM4.687 6.572l1.885-1.885 2.828 2.828-1.885 1.885-2.828-2.828zM25.427 4.687l1.885 1.885-2.828 2.828-1.885-1.885 2.828-2.828zM30.667 14.667v2.667h-4v-2.667h4zM5.333 14.667v2.667h-4v-2.667h4z"></path>
</symbol>

<symbol id="icon-clock" viewBox="0 0 32 32">
<path d="M16 29.333c-7.364 0-13.333-5.969-13.333-13.333s5.969-13.333 13.333-13.333 13.333 5.969 13.333 13.333c0 7.364-5.969 13.333-13.333 13.333zM16 26.667c2.829 0 5.542-1.124 7.542-3.124s3.124-4.714 3.124-7.543-1.124-5.542-3.124-7.542c-2-2-4.713-3.124-7.542-3.124s-5.542 1.124-7.542 3.124c-2 2-3.124 4.713-3.124 7.542s1.124 5.542 3.124 7.543c2 2 4.713 3.124 7.542 3.124zM17.333 16h5.333v2.667h-8v-9.333h2.667v6.667z"></path>
</symbol>

<symbol id="icon-yt" viewBox="0 0 32 32">
<path d="M28.724 8.664c0.609 2.376 0.609 7.336 0.609 7.336s0 4.96-0.609 7.336c-0.339 1.313-1.329 2.347-2.584 2.696-2.279 0.635-10.14 0.635-10.14 0.635s-7.857 0-10.14-0.635c-1.26-0.355-2.249-1.387-2.584-2.696-0.609-2.376-0.609-7.336-0.609-7.336s0-4.96 0.609-7.336c0.339-1.313 1.329-2.347 2.584-2.696 2.283-0.635 10.14-0.635 10.14-0.635s7.861 0 10.14 0.635c1.26 0.355 2.249 1.387 2.584 2.696zM13.333 20.667l8-4.667-8-4.667v9.333z"></path>
</symbol>

<symbol id="icon-inst" viewBox="0 0 32 32">
<path d="M16 2.667c3.623 0 4.075 0.013 5.496 0.080 1.42 0.067 2.387 0.289 3.237 0.62 0.88 0.339 1.621 0.797 2.363 1.537 0.678 0.667 1.203 1.473 1.537 2.363 0.329 0.849 0.553 1.817 0.62 3.237 0.063 1.421 0.080 1.873 0.080 5.496s-0.013 4.075-0.080 5.496c-0.067 1.42-0.291 2.387-0.62 3.237-0.334 0.89-0.858 1.697-1.537 2.363-0.667 0.678-1.473 1.202-2.363 1.537-0.849 0.329-1.817 0.553-3.237 0.62-1.421 0.063-1.873 0.080-5.496 0.080s-4.075-0.013-5.496-0.080c-1.42-0.067-2.387-0.291-3.237-0.62-0.89-0.334-1.697-0.859-2.363-1.537-0.678-0.666-1.203-1.473-1.537-2.363-0.331-0.849-0.553-1.817-0.62-3.237-0.063-1.421-0.080-1.873-0.080-5.496s0.013-4.075 0.080-5.496c0.067-1.421 0.289-2.387 0.62-3.237 0.334-0.89 0.858-1.697 1.537-2.363 0.666-0.678 1.473-1.203 2.363-1.537 0.851-0.331 1.816-0.553 3.237-0.62 1.421-0.063 1.873-0.080 5.496-0.080zM16 9.333c-1.768 0-3.464 0.702-4.714 1.953s-1.953 2.946-1.953 4.714c0 1.768 0.702 3.464 1.953 4.714s2.946 1.953 4.714 1.953 3.464-0.702 4.714-1.953c1.25-1.25 1.953-2.946 1.953-4.714s-0.702-3.464-1.953-4.714c-1.25-1.25-2.946-1.953-4.714-1.953zM24.667 9c0-0.442-0.176-0.866-0.488-1.179s-0.736-0.488-1.178-0.488-0.866 0.176-1.179 0.488c-0.313 0.313-0.488 0.736-0.488 1.179s0.176 0.866 0.488 1.178c0.313 0.313 0.737 0.488 1.179 0.488s0.866-0.176 1.178-0.488c0.313-0.313 0.488-0.736 0.488-1.178zM16 12c1.061 0 2.078 0.421 2.828 1.172s1.172 1.768 1.172 2.828c0 1.061-0.421 2.078-1.172 2.828s-1.768 1.172-2.828 1.172c-1.061 0-2.078-0.421-2.828-1.172s-1.172-1.768-1.172-2.828c0-1.061 0.421-2.078 1.172-2.828s1.768-1.172 2.828-1.172z"></path>
</symbol>

<symbol id="icon-facebook" viewBox="0 0 32 32">
<path d="M19 6h5v-6h-5c-3.86 0-7 3.14-7 7v3h-4v6h4v16h6v-16h5l1-6h-6v-3c0-0.542 0.458-1 1-1z"></path>
</symbol>

<symbol id="icon-twitter" viewBox="0 0 32 32">
<path d="M32 7.075c-1.175 0.525-2.444 0.875-3.769 1.031 1.356-0.813 2.394-2.1 2.887-3.631-1.269 0.75-2.675 1.3-4.169 1.594-1.2-1.275-2.906-2.069-4.794-2.069-3.625 0-6.563 2.938-6.563 6.563 0 0.512 0.056 1.012 0.169 1.494-5.456-0.275-10.294-2.888-13.531-6.862-0.563 0.969-0.887 2.1-0.887 3.3 0 2.275 1.156 4.287 2.919 5.463-1.075-0.031-2.087-0.331-2.975-0.819 0 0.025 0 0.056 0 0.081 0 3.181 2.263 5.838 5.269 6.437-0.55 0.15-1.131 0.231-1.731 0.231-0.425 0-0.831-0.044-1.237-0.119 0.838 2.606 3.263 4.506 6.131 4.563-2.25 1.762-5.075 2.813-8.156 2.813-0.531 0-1.050-0.031-1.569-0.094 2.913 1.869 6.362 2.95 10.069 2.95 12.075 0 18.681-10.006 18.681-18.681 0-0.287-0.006-0.569-0.019-0.85 1.281-0.919 2.394-2.075 3.275-3.394z"></path>
</symbol>

<symbol id="icon-celsium" viewBox="0 0 32 32" >
    <g clip-path="url(#clip0_3_42)">
<path d="M1.49998 3.33333C1.34677 3.33333 1.19506 3.30316 1.05352 3.24453C0.911969 3.1859 0.783357 3.09996 0.675022 2.99162C0.566687 2.88329 0.480751 2.75468 0.42212 2.61313C0.36349 2.47158 0.333313 2.31988 0.333313 2.16667C0.333313 2.01346 0.36349 1.86175 0.42212 1.7202C0.480751 1.57866 0.566687 1.45004 0.675022 1.34171C0.783357 1.23337 0.911969 1.14744 1.05352 1.08881C1.19506 1.03018 1.34677 1 1.49998 1C1.8094 1 2.10615 1.12292 2.32494 1.34171C2.54373 1.5605 2.66665 1.85725 2.66665 2.16667C2.66665 2.47609 2.54373 2.77283 2.32494 2.99162C2.10615 3.21042 1.8094 3.33333 1.49998 3.33333ZM1.49998 2.66667C1.63259 2.66667 1.75976 2.61399 1.85353 2.52022C1.9473 2.42645 1.99998 2.29927 1.99998 2.16667C1.99998 2.03406 1.9473 1.90688 1.85353 1.81311C1.75976 1.71935 1.63259 1.66667 1.49998 1.66667C1.36737 1.66667 1.24019 1.71935 1.14643 1.81311C1.05266 1.90688 0.99998 2.03406 0.99998 2.16667C0.99998 2.29927 1.05266 2.42645 1.14643 2.52022C1.24019 2.61399 1.36737 2.66667 1.49998 2.66667ZM7.33331 3.33333H6.66665C6.66665 2.97971 6.52617 2.64057 6.27612 2.39052C6.02607 2.14048 5.68693 2 5.33331 2C4.97969 2 4.64055 2.14048 4.3905 2.39052C4.14046 2.64057 3.99998 2.97971 3.99998 3.33333V5C3.99998 5.35362 4.14046 5.69276 4.3905 5.94281C4.64055 6.19286 4.97969 6.33333 5.33331 6.33333C5.68693 6.33333 6.02607 6.19286 6.27612 5.94281C6.52617 5.69276 6.66665 5.35362 6.66665 5H7.33331C7.33331 5.53043 7.1226 6.03914 6.74753 6.41421C6.37245 6.78929 5.86375 7 5.33331 7C4.80288 7 4.29417 6.78929 3.9191 6.41421C3.54403 6.03914 3.33331 5.53043 3.33331 5V3.33333C3.33331 2.8029 3.54403 2.29419 3.9191 1.91912C4.29417 1.54405 4.80288 1.33333 5.33331 1.33333C5.86375 1.33333 6.37245 1.54405 6.74753 1.91912C7.1226 2.29419 7.33331 2.8029 7.33331 3.33333Z" fill="#393939"/>
</g>
<defs>
<clipPath id="clip0_3_42">
<rect width="8" height="8" fill="white"/>
</clipPath>
</symbol>

</defs>
</svg>
